PathFileType	4	(X/Y/Z)	0_coords_data.trc
DataRate	CameraRate	NumFrames	NumMarkers	Units	OrigDataRate	OrigDataStartFrame	OrigNumFrames
30.0	30.0	8	21	m	30.0	22	53
Frame#	Time	THUMB_TIP	THUMB_IP	THUMB_MCP	THUMB_CMC	INDEX_TIP	INDEX_DIP	INDEX_PIP	INDEX_MCP	MIDDLE_TIP	MIDDLE_DIP	MIDDLE_PIP	MIDDLE_MCP	RING_TIP	RING_DIP	RING_PIP	RING_MCP	PINKY_TIP	PINKY_DIP	PINKY_PIP	PINKY_MCP	WRIST
X1	Y1	Z1	X2	Y2	Z2	X3	Y3	Z3	X4	Y4	Z4	X5	Y5	Z5	X6	Y6	Z6	X7	Y7	Z7	X8	Y8	Z8	X9	Y9	Z9	X10	Y10	Z10	X11	Y11	Z11	X12	Y12	Z12	X13	Y13	Z13	X14	Y14	Z14	X15	Y15	Z15	X16	Y16	Z16	X17	Y17	Z17	X18	Y18	Z18	X19	Y19	Z19	X20	Y20	Z20	X21	Y21	Z21
20	0.6999999999999968	0.5417478740174173	-0.019696328025537446	-0.1342960844055759	0.5226860640804964	-0.01711836101870856	-0.12172622012466944	0.49191494846155415	-0.018540141671217703	-0.11726113520477835	0.4761435221372551	-0.027858799500065534	-0.07658786722732092	0.5713972376191734	0.04307949670559358	-0.15294994082858673	0.5561876040913522	0.03769165686309495	-0.1447256943718615	0.5350310929017232	0.031809011026379175	-0.1324861541336465	0.501050685768234	0.02820558890980801	-0.10706995115027146	0.520279566787833	-0.008335928928368319	-0.11609731217213634	0.5357786756778736	-0.005168783819974654	-0.12491472763683145	0.5475741021738374	0.020834640571557095	-0.11907525987921772	0.5161438109113844	0.026594734939750897	-0.08784857217419725	0.530269589081277	-0.016230996604880366	-0.10521733017720372	0.5462817596609749	-0.013052272010833699	-0.11286625842120385	0.5587338138433133	0.007345085310948796	-0.10586096471375409	0.5304709292975085	0.010610918777765044	-0.07713354709717155	0.5974671036170839	0.02159683938430429	-0.08225146576833436	0.5827312548531483	0.013110600284076901	-0.08029225492205255	0.5638505767182584	0.0044255936688828434	-0.07730852030571522	0.5324853619375679	-0.012733857455871467	-0.07254826927679528	0.462283081001861	-0.023011742144276925	-0.05198982011943096
21	0.7333333333333302	0.5416762201361328	-0.019747009484565592	-0.13437042281791034	0.5226240755330664	-0.017159331502384412	-0.12178790682609109	0.491856340632133	-0.01855186515035334	-0.11729042540810192	0.4760984558332533	-0.027868146759136236	-0.07661136490209852	0.5713924331068516	0.042881847236186876	-0.1530631903323692	0.5561805171486717	0.03753639905292633	-0.14481553632645044	0.5350248375577535	0.03169711773442879	-0.13255381345689185	0.5010561030075111	0.028154667416170953	-0.10711344764195418	0.5202900341886325	-0.008466550582332866	-0.11622911557779259	0.5357790229334043	-0.00524126549015741	-0.12504323854826013	0.5475695198416748	0.02074925955369772	-0.11913677254896696	0.5161479600473469	0.026547018855564597	-0.08790826813122246	0.5302318953335822	-0.016336967356012033	-0.10533955397517558	0.54623868986942	-0.01313919195695945	-0.11299179294064776	0.558726151992717	0.007223637466388988	-0.10594917648120325	0.5304639819386662	0.01055385601254788	-0.07722844838683315	0.5973325750124765	0.021741638570341726	-0.08240611972893841	0.582623377345996	0.013208993430283256	-0.08044819457147162	0.5637720775582717	0.004466834304519718	-0.07744566744700176	0.5324593626081966	-0.012781311312489607	-0.07266039773362232	0.462283081001861	-0.023011742144276925	-0.051989820119430985
22	0.7666666666666633	0.5416121210347797	-0.019717899551961182	-0.13443244717343128	0.5225686498454845	-0.017157043512523118	-0.12183132732606253	0.49180357184096146	-0.018536298922741667	-0.11731163376465789	0.47608662262561807	-0.027862739056540964	-0.07661906660807541	0.5713807768825985	0.04274408024754167	-0.15314561425601225	0.5561685578547305	0.03743198019867372	-0.1448769997820516	0.5350170096420588	0.03163704470885631	-0.1325871436447373	0.5010611001741047	0.02814020077116869	-0.10712335781702567	0.5202472767329337	-0.00856838679728078	-0.11628302143557337	0.5357368004532054	-0.005302552931032101	-0.1250812589907433	0.5475497138862407	0.020676087298179657	-0.11916730277981324	0.5161543158280815	0.02652951838730888	-0.08792287533659468	0.5301521137473918	-0.016439335010676515	-0.10540128930649692	0.546158009371288	-0.013182692585720024	-0.11303054781521948	0.5587126848965214	0.007137797961758285	-0.10598514041990484	0.5304572088320696	0.010539224587588936	-0.07726617102195654	0.5971904822013003	0.02195478487012531	-0.08255460069761997	0.5825145699447284	0.013366122701376937	-0.08059182674514653	0.5636977547263442	0.004560229344979572	-0.07755938115899907	0.5324422142479228	-0.012775014026251807	-0.07271541814696586	0.4622830810018609	-0.023011742144276925	-0.051989820119430985
23	0.7999999999999965	0.5415285485254089	-0.019665512081111447	-0.1344833272074037	0.5224869993575744	-0.017119794268944555	-0.12187623689640173	0.4917242771650576	-0.01846895755916933	-0.11733149469003312	0.4760767615729823	-0.027855557645053597	-0.07662600372599437	0.5713437835938369	0.04264167799269186	-0.1532201673968182	0.5561301691628591	0.03736737927011019	-0.14492994973197257	0.5349802606392721	0.03161233351611287	-0.13261854644829707	0.5010402969356241	0.028150118282828984	-0.10712878333693246	0.5202102433587589	-0.008551498072385588	-0.11629968858755504	0.5357029759122608	-0.005317644079016304	-0.1251040867143567	0.5475436029422556	0.020648001670349247	-0.11918848510885491	0.5161470710554066	0.0265188300859876	-0.08794846141820756	0.5300919761361363	-0.01655431831282622	-0.10547566658200194	0.5461005779528204	-0.013225192463396984	-0.11306787238489754	0.5586861150497203	0.007072965491217609	-0.10601315632880634	0.5304437181637058	0.010548523384910968	-0.07729019775103396	0.5970326951699715	0.02219565867919815	-0.08270652181122451	0.5823927487114043	0.013548068209024766	-0.08073392282753386	0.5636127936438875	0.0046768632642757435	-0.07766357602459645	0.5324296167050551	-0.012770369335752207	-0.0727557250079087	0.4622830810018608	-0.023011742144276925	-0.05198982011943101
24	0.8333333333333297	0.5414342210827298	-0.01958103925975041	-0.13455479242720655	0.5224004394653793	-0.017079480097285826	-0.12192714976914493	0.4916429115275254	-0.018432724983505788	-0.11734859066937758	0.476072850274753	-0.027870534190935714	-0.07662524417195593	0.5713206589242219	0.04254927682533122	-0.15329284723239134	0.5561076577959746	0.03730347543619539	-0.14498344506029215	0.5349571688258211	0.031590790144368275	-0.1326533243763751	0.5010321822314954	0.02814225791171343	-0.1071417778921818	0.5202321639484463	-0.008685523560093611	-0.1163677808254856	0.5357029051990568	-0.005344701294205834	-0.1251709093457566	0.5475298567384695	0.020619341740573338	-0.11922101551707978	0.5161527569392915	0.026501629683690686	-0.08796362890612514	0.5300368546455942	-0.016619714388153517	-0.10550883971641503	0.5460400856721737	-0.01325270962109254	-0.11309566221391112	0.5586658495642888	0.007023081296116174	-0.1060485090424381	0.5304381250809185	0.010540271359731512	-0.07731619659551958	0.5968615158276602	0.022461077612914604	-0.08286140904872621	0.5822609584933511	0.01375013783840301	-0.08087564628032129	0.5635226892845527	0.004800761735429926	-0.0777775898853964	0.5324103602952032	-0.012756836096212698	-0.07281400305319702	0.4622830810018609	-0.023011742144276925	-0.051989820119430985
25	0.8666666666666629	0.541375583816298	-0.01949304554364817	-0.13459538182604322	0.5223452591391157	-0.017014680723633824	-0.12195795920511526	0.4915894836671809	-0.018358672544934507	-0.1173649252291677	0.4760752529608758	-0.02783888200897	-0.07663012101815472	0.5712689139042765	0.042523387626058284	-0.1533212342171729	0.5560559999820561	0.03729885856649867	-0.1449982812495699	0.5349067473666699	0.031622380955002694	-0.13264933195269585	0.5009935265432206	0.028195851352352586	-0.10711918423941127	0.5201867200231284	-0.008681937838904308	-0.11635159126557892	0.5356486694517519	-0.005315654393577007	-0.1251604649525153	0.547498910585373	0.020644260293024852	-0.11923896475920354	0.5161390204803228	0.02651733232339165	-0.0879625800812184	0.530008348825453	-0.016625422615790586	-0.10556768227680799	0.5460114601639885	-0.013223577848482937	-0.1131391999361403	0.5586275509685736	0.0070481643536847716	-0.10606313465243103	0.5304167549454282	0.010583475118226604	-0.07731642354422605	0.5966795294997297	0.022785187903422488	-0.08300506632964061	0.5821222608620024	0.014004494300321746	-0.08100873227505268	0.5634268392244777	0.004976521470027084	-0.07788000483875687	0.5323957657356302	-0.012701486684447483	-0.07283580452353416	0.4622830810018608	-0.023011742144276925	-0.051989820119430985
26	0.8999999999999961	0.5413735483402657	-0.019412635208705842	-0.13459012415366783	0.5223463050009152	-0.016969016967557538	-0.12194130046145557	0.4915894085152607	-0.018340407357143484	-0.11736389869079067	0.47610291534133675	-0.0278197968067454	-0.07661835040834905	0.571264238713462	0.0425736795316774	-0.15327936724471136	0.5560534319474083	0.037337274398480225	-0.14496002719836118	0.5349067158927069	0.031646825368697784	-0.1326131643198288	0.5009877674771633	0.028232719432014886	-0.10708896182422065	0.5201541978583306	-0.008629310332140261	-0.11627530261446806	0.535610477919571	-0.005348599198150117	-0.1251263105301698	0.5474932414625124	0.020603597333607615	-0.11923623618772172	0.5161624204407611	0.02651039743567024	-0.08793707824925207	0.5300049727104794	-0.016704331084970214	-0.10560777962630047	0.5460044823948521	-0.013241822184160701	-0.11315938356000094	0.558609039544268	0.0070326574089439875	-0.10607061813181154	0.5304252552030199	0.010579484937394024	-0.07729884118478503	0.5964603304092316	0.023160580468890468	-0.08311662047237492	0.5819587454810812	0.014287974411824	-0.08112140210644503	0.5633222831810222	0.005146905084079945	-0.07796939584314877	0.5323907256347351	-0.012681133613723417	-0.07284267808708336	0.4622830810018608	-0.023011742144276925	-0.05198982011943101
27	0.9333333333333294	0.541490253392782	-0.019311715522630057	-0.13450183881028338	0.5224467605364398	-0.01692466686090316	-0.12186667444582056	0.4916870423213122	-0.01834016011116535	-0.11732177464665991	0.4760857372782886	-0.027838167103535094	-0.07662438966767848	0.5712565444258916	0.04268854259572458	-0.1531819872726502	0.5560416392516269	0.03741834112072828	-0.14489153270422736	0.5348827838690473	0.031712694413312426	-0.1325725121445706	0.5009490479065103	0.0282821131939342	-0.10707018342497981	0.5200452360985787	-0.008542317883864003	-0.11620785797385053	0.535505770014954	-0.005351478791634168	-0.12508425571776122	0.5474680937046288	0.02057198491116735	-0.11922879744423712	0.5161652400402099	0.026526469408435283	-0.08791069744063257	0.5299128327764	-0.016619396044346035	-0.10548553380426326	0.545892650205952	-0.013262906069335278	-0.11312617579076162	0.5585614515257707	0.0069821991067149924	-0.1060680479561569	0.5304276589198059	0.01060611403039885	-0.07725697737156265	0.5961810549251121	0.023587550996834794	-0.08319881141006752	0.5817496171500758	0.014594220215339404	-0.08123575124800775	0.563181651365741	0.005310746887355444	-0.0780957212162427	0.5323805723058891	-0.01272102270338521	-0.07289646500259117	0.4622830810018609	-0.023011742144276925	-0.05198982011943101
